<?xml version="1.0" encoding="utf-8"?>
<!-- Generator: Adobe Illustrator 26.5.0, SVG Export Plug-In . SVG Version: 6.00 Build 0)  -->
<svg width="81" height="81" version="1.1" id="Layer_1" xmlns="http://www.w3.org/2000/svg" xmlns:xlink="http://www.w3.org/1999/xlink" x="0px" y="0px"
	 viewBox="0 0 81 81" style="enable-background:new 0 0 81 81;" xml:space="preserve">
<style type="text/css">
	.st0{opacity:0.4;fill:#8B74C4;enable-background:new    ;}
	.st1{fill:url(#SVGID_1_);}
	.st2{opacity:0.5;fill:#BE5286;enable-background:new    ;}
	.st3{opacity:0.3;fill:#FFFFFF;enable-background:new    ;}
	.st4{opacity:0.15;fill:#A2FFFF;enable-background:new    ;}
	.st5{opacity:0.5;fill:#FFFFFF;enable-background:new    ;}
	.st6{opacity:0.5;fill:#BE8186;enable-background:new    ;}
	.st7{fill:url(#SVGID_00000180360607979073400110000007064219123041943982_);}
	.st8{fill:url(#SVGID_00000151545988663758749940000009264216887958810010_);}
	.st9{fill:url(#SVGID_00000021086396822584052560000018364172681342437558_);}
	.st10{opacity:0.5;}
	.st11{fill:#DC6A94;}
	.st12{opacity:0.2;fill:#DC6A94;enable-background:new    ;}
	.st13{opacity:0.5;fill:#C60055;enable-background:new    ;}
	.st14{fill:url(#SVGID_00000058578152813769242430000017239424624121869443_);}
	.st15{fill:url(#SVGID_00000079482108998271347180000006155289273456354960_);}
	.st16{fill:url(#SVGID_00000126323990431704449610000012652869476470090894_);}
	.st17{fill:url(#SVGID_00000088134632216434689980000012268630062945101229_);}
	.st18{fill:#B52E4B;}
	.st19{opacity:0.3;fill:#FFB64A;enable-background:new    ;}
	.st20{opacity:0.2;fill:#C60055;enable-background:new    ;}
	.st21{opacity:0.3;fill:#C60055;enable-background:new    ;}
	.st22{opacity:0.4;fill:#C60055;enable-background:new    ;}
	.st23{fill:url(#SVGID_00000111881734805782544980000001302447146357628297_);}
	.st24{opacity:0.3;}
	.st25{fill:url(#SVGID_00000090984631849947531710000002731831760358972327_);}
	.st26{opacity:0.75;}
	.st27{fill:#FFFFFF;}
	.st28{fill:url(#SVGID_00000099624280907188255220000015626016762947880333_);}
	.st29{fill:url(#SVGID_00000173861176140201653130000015399231044908964005_);}
</style>
<g id="background">
</g>
<g id="layer1">
	<path class="st0" d="M-114.743118,10.220107L-114.743118,10.220107L-114.743118,10.220107L-114.743118,10.220107z"/>
	<g>
		
			<linearGradient id="SVGID_1_" gradientUnits="userSpaceOnUse" x1="10470.310547" y1="16557.361328" x2="10470.310547" y2="16354.570312" gradientTransform="matrix(0.069699 0 0 0.069699 -722.92926 -1120.492798)">
			<stop  offset="0" style="stop-color:#66319A"/>
			<stop  offset="1" style="stop-color:#C51DF1"/>
		</linearGradient>
		<path class="st1" d="M13.338951,26.195446c0,1.530209-0.48931,3.019608-1.291782,4.284576
			c-1.193919,1.815842-3.072876,3.080814-5.206272,3.080814c-2.583564,0-4.814822-1.87705-5.852159-4.304977
			c0-0.020403,0-0.020403-0.019573-0.020403l0,0c-0.411023-0.938528-0.62632-1.979067-0.62632-3.019606
			c0-0.693695,0.097862-1.366983,0.293587-1.999472l0,0c0.822045-2.774771,3.288168-4.774237,6.204466-4.774237
			c3.151165,0,5.773872,2.325911,6.361042,5.427126C13.299809,25.277325,13.338951,25.726183,13.338951,26.195446z"/>
		<path class="st2" d="M13.338951,26.195446c0,3.733702-2.916293,7.365391-6.498055,7.365391
			c-3.581755,0-6.498054-3.611284-6.498054-7.365391c0-0.693689,0.097862-1.366982,0.293587-1.999466l0,0
			c0.665462-1.530207,4.110214,6.753304,7.633252,7.24297c3.523042,0.469265,5.010549-2.978802,4.932258-6.202431
			c0-0.142818,0-0.265234,0.019573-0.38765C13.299809,25.277325,13.338951,25.726183,13.338951,26.195446z"/>
		<path class="st3" d="M5.118524,21.727251c-1.898529,0.040806-1.409218,6.875721,2.172542,8.691565
			c3.581757,1.815842,6.30233-2.427923,5.91088-5.182291c-0.391448-2.754372-2.603132-4.039743-3.346888-4.100952
			C9.111308,21.053959,7.741236,21.666044,5.118524,21.727251z"/>
		<path class="st3" d="M0.96917,29.215054c0,0,0,0.020405,0.019573,0.020405C0.96917,29.215054,0.96917,29.215054,0.96917,29.215054
			z"/>
		<path class="st4" d="M12.047174,30.45962c-1.19392,1.81584-3.072876,3.080809-5.206271,3.080809
			c-2.583565,0-4.814823-1.877047-5.852159-4.304972c0.137009,0.285635,1.252635,2.529936,3.699191,3.590879
			c2.622706,1.12215,4.990973-0.877319,6.439333-2.060677C11.420855,30.500427,11.734015,30.418814,12.047174,30.45962z"/>
		<path class="st2" d="M2.300095,30.847271c-0.978622-1.305773-0.234872-2.733965,1.50708-2.060675
			c1.741946,0.673288,3.288169,2.325909,4.521236,2.652353C9.561472,31.785797,5.646984,35.315468,2.300095,30.847271z"/>
		<path class="st5" d="M8.876436,22.992222c-0.587172,0.204025-0.215299,1.917854,0.489312,1.775034
			C10.070357,24.624437,9.678907,22.726984,8.876436,22.992222z"/>
		<path class="st4" d="M0.577721,27.84807c0.430596,0.938528,0.019573-1.652624,0.939475-4.366182
			c0.606747-1.77504,1.741946-2.958395,1.741946-2.958395S-0.557485,23.114634,0.577721,27.84807z"/>
		<g>
			<path class="st6" d="M12.653916,27.276794c-0.019574,0.061209-0.039148,0.122416-0.058715,0.204027
				c-0.25444,0.591677-1.154773,1.244566-1.663658,0.958927c-0.176151-0.081608-0.254439-0.224432-0.293587-0.408054l0,0
				c-0.117436-0.591677,0.430596-1.571011,0.782898-2.142288C11.851451,25.154907,12.751779,26.664713,12.653916,27.276794z"/>
			<path class="st6" d="M10.324797,29.092636c-0.019574,0.183622-0.078289,0.38765-0.13701,0.652887
				c-0.176151,0.571276-0.70461,0.142817-0.841613-0.285639c-0.019572-0.08161-0.039145-0.142817-0.039145-0.224428
				c0-0.489666,0.48931-0.938528,0.880759-0.714098C10.324797,28.582569,10.363943,28.786596,10.324797,29.092636z"/>
			<path class="st2" d="M12.653916,27.276794c-0.019574,0.061209-0.039148,0.122416-0.058715,0.204027h-0.039147
				c0,0,0.039147-0.183624-0.117437-0.673292c-0.156576-0.510067-0.567598-1.081347-1.037336-0.652885
				c-0.450163,0.428459-0.743751,1.836246-0.763324,1.87705c-0.117436-0.591677,0.430596-1.571011,0.782898-2.142288
				C11.851451,25.154907,12.751779,26.664713,12.653916,27.276794z"/>
			<path class="st2" d="M10.324797,29.092636c0,0-0.332734-0.632488-0.665462-0.489664
				c-0.332733,0.142818-0.332733,0.836514-0.332733,0.836514c-0.019573-0.081612-0.039147-0.142818-0.039147-0.224432
				c0-0.489666,0.48931-0.938528,0.880759-0.714096C10.324797,28.582569,10.363943,28.786596,10.324797,29.092636z"/>
		</g>
	</g>
	<g>
		
			<linearGradient id="SVGID_00000073697499204105072050000009012143812411547839_" gradientUnits="userSpaceOnUse" x1="11455.545898" y1="17068.193359" x2="11455.545898" y2="16913.634766" gradientTransform="matrix(0.069699 0 0 0.069699 -722.92926 -1120.492798)">
			<stop  offset="0" style="stop-color:#66319A"/>
			<stop  offset="1" style="stop-color:#C51DF1"/>
		</linearGradient>
		<path style="fill:url(#SVGID_00000073697499204105072050000009012143812411547839_);" d="M80.452873,63.532452
			c0,1.162952-0.371887,2.305508-0.998199,3.264439c-0.900322,1.387383-2.348686,2.346313-3.953629,2.346313
			c-1.957245,0-3.660057-1.428192-4.462517-3.284843v-0.020401l0,0c-0.313148-0.714096-0.469742-1.509804-0.469742-2.305508
			c0-0.530476,0.078293-1.040539,0.215286-1.530209l0,0c0.62632-2.101475,2.50528-3.631683,4.736534-3.631683
			c2.38784,0,4.403801,1.77504,4.853966,4.141754C80.413727,62.838757,80.452873,63.1856,80.452873,63.532452z"/>
		<path class="st2" d="M80.452873,63.532452c0,2.85638-2.211685,5.610752-4.951828,5.610752
			c-2.74015,0-4.951836-2.754372-4.951836-5.610752c0-0.530476,0.078293-1.040539,0.215286-1.530209l0,0
			c0.508881-1.162952,3.131592,5.141495,5.813019,5.508743c2.681419,0.367249,3.816628-2.264709,3.757919-4.713036
			c0-0.102013,0-0.204029,0.019562-0.306038C80.413727,62.838757,80.452873,63.1856,80.452873,63.532452z"/>
		<path class="st3" d="M74.18969,60.145596c-1.448372,0.040806-1.076492,5.243504,1.663651,6.630886
			c2.740143,1.38739,4.795258-1.856644,4.501671-3.95813c-0.293594-2.101475-1.976822-3.080811-2.544418-3.121613
			C77.242989,59.635525,76.186073,60.104797,74.18969,60.145596z"/>
		<path class="st3" d="M71.018951,65.837959C71.038513,65.85836,71.038513,65.85836,71.018951,65.837959
			C71.038513,65.85836,71.038513,65.85836,71.018951,65.837959z"/>
		<path class="st4" d="M79.454666,66.79689c-0.90033,1.387383-2.348694,2.346313-3.953636,2.346313
			c-1.957245,0-3.660049-1.428192-4.462517-3.284843c0.09787,0.224434,0.939476,1.917862,2.818443,2.733971
			c1.996384,0.856911,3.797058-0.673294,4.893105-1.571014C78.984932,66.817299,79.219803,66.776482,79.454666,66.79689z"/>
		<path class="st2" d="M72.056282,67.08252c-0.743752-0.999725-0.176155-2.081078,1.154785-1.571007
			c1.330917,0.510063,2.505264,1.77504,3.444748,2.019875C77.575714,67.796623,74.6007,70.489784,72.056282,67.08252z"/>
		<path class="st5" d="M77.047256,61.124931c-0.450157,0.163216-0.156578,1.448593,0.37188,1.346584
			C77.947594,62.349094,77.654015,60.900497,77.047256,61.124931z"/>
		<path class="st4" d="M70.686211,64.817825c0.332741,0.714096,0.019569-1.264973,0.743752-3.325649
			c0.469742-1.346581,1.350502-2.264706,1.350502-2.264706S69.805458,61.206539,70.686211,64.817825z"/>
		<g>
			<path class="st6" d="M79.924408,64.368965c0,0.04081-0.019569,0.102013-0.039146,0.142822
				c-0.195724,0.44886-0.88076,0.938522-1.25264,0.734497c-0.137009-0.061211-0.195724-0.183624-0.234871-0.306038l0,0
				c-0.097862-0.448868,0.332726-1.203766,0.587166-1.632221C79.317665,62.757149,80.002708,63.8997,79.924408,64.368965z"/>
			<path class="st6" d="M78.162888,65.756348c-0.019562,0.142822-0.058716,0.306038-0.117432,0.489662
				c-0.137009,0.428459-0.528458,0.122414-0.645882-0.224434c-0.019569-0.061203-0.039146-0.122414-0.039146-0.163216
				c0-0.38765,0.37188-0.714096,0.685028-0.530464C78.143326,65.368698,78.182457,65.531921,78.162888,65.756348z"/>
			<path class="st2" d="M79.924408,64.368965c0,0.04081-0.019569,0.102013-0.039146,0.142822h-0.019569
				c0,0,0.019569-0.142822-0.097862-0.510063c-0.117432-0.387657-0.430595-0.836521-0.782898-0.48967
				c-0.352303,0.326443-0.567604,1.407791-0.567604,1.428192c-0.097862-0.448868,0.332733-1.203766,0.587173-1.632221
				C79.317665,62.757149,80.002708,63.8997,79.924408,64.368965z"/>
			<path class="st2" d="M78.162888,65.756348c0,0-0.25444-0.489662-0.508873-0.367249
				c-0.25444,0.102013-0.25444,0.652893-0.25444,0.652893c-0.019569-0.061211-0.039146-0.122421-0.039146-0.163216
				c0-0.387657,0.37188-0.714096,0.685028-0.530479C78.143326,65.368698,78.182457,65.531921,78.162888,65.756348z"/>
		</g>
	</g>
	<g>
		
			<linearGradient id="SVGID_00000040573200960010356210000011030388696814562958_" gradientUnits="userSpaceOnUse" x1="10753.651367" y1="17232.121094" x2="10753.651367" y2="17003.828125" gradientTransform="matrix(0.069699 0 0 0.069699 -722.92926 -1120.492798)">
			<stop  offset="0" style="stop-color:#66319A"/>
			<stop  offset="1" style="stop-color:#C51DF1"/>
		</linearGradient>
		<path style="fill:url(#SVGID_00000040573200960010356210000011030388696814562958_);" d="M33.909592,72.285225
			c0,1.713821-0.548027,3.407257-1.467934,4.815041c-1.330925,2.040283-3.464325,3.468468-5.85216,3.468468
			c-2.896719,0-5.42157-2.101479-6.595917-4.855843c0-0.020409,0-0.020409-0.019573-0.020409l0,0
			c-0.450165-1.060944-0.704609-2.2239-0.704609-3.386856c0-0.775299,0.117435-1.530205,0.332735-2.244301l0,0
			c0.919907-3.12162,3.69919-5.365921,6.987364-5.365921c3.542614,0,6.498053,2.631958,7.163519,6.100426
			C33.870449,71.265091,33.909592,71.754753,33.909592,72.285225z"/>
		<path class="st2" d="M33.909592,72.285225c0,4.202957-3.2686,8.283508-7.320093,8.283508s-7.320091-4.080551-7.320091-8.283508
			c0-0.775307,0.117435-1.530205,0.332735-2.244301l0,0c0.74375-1.713829,4.638672,7.610222,8.592299,8.140686
			c3.953638,0.530479,5.656439-3.346046,5.558577-6.97773c0-0.163223,0-0.306046,0.019573-0.428467
			C33.870449,71.265091,33.909592,71.754753,33.909592,72.285225z"/>
		<path class="st3" d="M24.651829,67.266151c-2.152971,0.040802-1.604942,7.753036,2.446554,9.793312
			c4.051497,2.040268,7.085226-2.733971,6.654634-5.83519c-0.450169-3.101212-2.935869-4.549805-3.757915-4.611015
			C29.173065,66.511253,27.607267,67.204948,24.651829,67.266151z"/>
		<path class="st3" d="M19.993582,75.692482c0,0,0,0.020409,0.019573,0.020409
			C19.993582,75.712891,19.993582,75.692482,19.993582,75.692482z"/>
		<path class="st4" d="M32.441658,77.100266c-1.330925,2.040283-3.464325,3.468468-5.85216,3.468468
			c-2.896719,0-5.42157-2.101479-6.595917-4.855843c0.156578,0.326439,1.40922,2.835976,4.149363,4.039734
			c2.935863,1.264969,5.617294-0.999733,7.241804-2.325912C31.737047,77.141075,32.108932,77.059464,32.441658,77.100266z"/>
		<path class="st2" d="M21.500664,77.528725c-1.096058-1.468994-0.25444-3.06041,1.702806-2.305504
			c1.957243,0.754898,3.718763,2.611549,5.088835,2.999207C29.662373,78.589661,25.258575,82.547798,21.500664,77.528725z"/>
		<path class="st5" d="M28.879478,68.694336c-0.665462,0.224434-0.234873,2.142296,0.548023,1.999474
			C30.229973,70.530586,29.779804,68.388298,28.879478,68.694336z"/>
		<path class="st4" d="M19.484703,74.162277c0.508886,1.040543,0.019573-1.877052,1.09606-4.917061
			c0.704609-1.999466,1.996391-3.325645,1.996391-3.325645S18.192921,68.816757,19.484703,74.162277z"/>
		<g>
			<path class="st6" d="M33.146267,73.529785c-0.019577,0.081612-0.039146,0.142822-0.078289,0.224434
				c-0.293587,0.652893-1.311354,1.38739-1.859383,1.081345c-0.195721-0.102013-0.293587-0.265228-0.332733-0.44886l0,0
				c-0.137009-0.673286,0.489313-1.775047,0.880762-2.427925C32.245934,71.122269,33.263702,72.815689,33.146267,73.529785z"/>
			<path class="st6" d="M30.52356,75.54966c-0.019573,0.204033-0.078289,0.44886-0.156574,0.734497
				c-0.195726,0.632484-0.7829,0.163216-0.959049-0.326439c-0.039148-0.081612-0.039148-0.163223-0.039148-0.244835
				c0-0.55088,0.548025-1.040543,0.998198-0.795715C30.52356,74.978386,30.562702,75.223213,30.52356,75.54966z"/>
			<path class="st2" d="M33.146267,73.529785c-0.019577,0.081612-0.039146,0.142822-0.078289,0.224434h-0.039146
				c0,0,0.039146-0.204025-0.137012-0.775299c-0.176147-0.571274-0.645885-1.224159-1.174341-0.734505
				c-0.50889,0.469269-0.841616,2.081093-0.841616,2.121895c-0.137009-0.673294,0.489313-1.775047,0.880762-2.427933
				C32.245934,71.122269,33.263702,72.815689,33.146267,73.529785z"/>
			<path class="st2" d="M30.52356,75.54966c0,0-0.371876-0.714096-0.743748-0.550873
				c-0.371876,0.163216-0.371876,0.958931-0.371876,0.958931c-0.039148-0.081612-0.039148-0.163223-0.039148-0.244835
				c0-0.55088,0.548025-1.040543,0.998198-0.795715C30.52356,74.978386,30.562702,75.223213,30.52356,75.54966z"/>
		</g>
	</g>
	<g>
		
			<linearGradient id="SVGID_00000032616864050014618890000010783654281987846076_" gradientUnits="userSpaceOnUse" x1="10951.732422" y1="17142.253906" x2="10951.732422" y2="16374.724609" gradientTransform="matrix(0.069699 0 0 0.069699 -722.92926 -1120.492798)">
			<stop  offset="0" style="stop-color:#FFC7AB"/>
			<stop  offset="0.433" style="stop-color:#FFBA82"/>
			<stop  offset="1" style="stop-color:#EF7C79"/>
		</linearGradient>
		<path style="fill:url(#SVGID_00000032616864050014618890000010783654281987846076_);" d="M67.202324,72.897308
			l-36.502609,1.407784l0,0c-0.313162-0.142822-7.652826-3.652084-12.604654-12.364056l0.802471-0.571274
			c0,0,5.539001,0.040806,5.186699-0.26524c-0.352303-0.306038-6.321898-1.836239-6.321898-1.836239
			s-0.371874,0.163216-0.900333,0.285633c-0.685034-1.468998-1.291781-3.060406-1.800667-4.79464
			c0.215299-0.183624,0.430596-0.38765,0.645889-0.612083c0.450163-0.448864,0.841612-0.93853,0.822044-1.244568
			c-0.058714-0.714096-1.389645-2.550343-1.761521-2.672756c-0.137009-0.040813-0.391448,0-0.685034,0.061203
			c-0.019573-0.102016-0.039146-0.224434-0.058715-0.326447c-3.033731-20.851593,10.784418-26.931608,10.784418-26.931608
			l1.507076-0.08161l39.418892-2.142281c0,0-9.062038,5.202698-12.565506,19.770245
			c-0.352303,1.428192-0.450169,2.937996-0.332737,4.488605c-1.076485,0.714096-3.190304,2.223896-2.622715,2.489136
			c0.469749,0.204029,1.898537,0.18362,2.955437,0.122414C55.439285,59.635525,67.202324,72.897308,67.202324,72.897308z"/>
		<g class="st10">
			<g>
				<path class="st11" d="M32.089359,70.857033c-0.117441-0.122421-11.704323-12.445667-11.586893-23.932411
					c0.117437-11.466339,8.944611-23.197908,9.042473-23.320326l0.430597,0.346846
					c-0.078289,0.122417-8.807602,11.690765-8.925037,22.97348c-0.117435,11.262314,11.31287,23.401939,11.410736,23.524353
					L32.089359,70.857033z"/>
			</g>
			<g>
				<path class="st11" d="M44.263412,70.591805c-0.117435-0.122421-11.567314-12.874134-11.019283-24.503689
					c0.548027-11.588753,6.86993-22.340994,6.948215-22.44301l0.469742,0.306044
					c-0.058716,0.102013-6.321899,10.752239-6.850357,22.177773c-0.548027,11.384724,10.74527,23.973213,10.862705,24.095634
					L44.263412,70.591805z"/>
			</g>
			<g>
				<path class="st11" d="M57.200806,67.919037c-0.489311-0.428459-11.821762-10.670628-12.350208-18.852119
					c-0.528458-8.120293,4.384235-23.748785,4.423367-23.912004l0.508881,0.183619
					c-0.058712,0.163225-4.932259,15.689709-4.403801,23.707977c0.528458,7.936665,12.056622,18.342056,12.174065,18.464478
					L57.200806,67.919037z"/>
			</g>
			<g>
				<path class="st11" d="M16.450975,42.558437l-0.019573-0.571274c0.176149,0,18.04579-0.918125,33.664597-1.38739
					l0.019566,0.571281C34.496765,41.619915,16.627125,42.53804,16.450975,42.558437z"/>
			</g>
			<g>
				<path class="st11" d="M18.975819,54.902096l-0.039145-0.57127c0.195723-0.020409,20.43363-1.28537,33.331871-1.775043
					l0.019569,0.571274C39.389877,53.616722,19.171543,54.881691,18.975819,54.902096z"/>
			</g>
			<g>
				<path class="st11" d="M23.868929,65.552322l-0.097862-0.55088c0.195726-0.04081,18.946131-3.407257,32.137955-2.489136
					l-0.03915,0.571274C42.736767,62.165466,24.045082,65.531921,23.868929,65.552322z"/>
			</g>
		</g>
		<path class="st12" d="M53.071014,41.232262c0,0-7.183086,6.508472-18.574249,10.58902s-18.417671-3.754101-18.515533-11.527546
			c-0.07829-7.773438,4.442948-12.894526,8.690164-13.975868c4.247223-1.081348,29.299948,11.527542,29.299948,11.527542
			L53.071014,41.232262z"/>
		<path class="st13" d="M22.479284,27.215586c-4.462513,2.448326-8.318288,10.793047-5.656435,15.975336
			c2.681427,5.182293,26.246647,2.183098,30.826599,0.469265c4.560375-1.713829,6.047886-4.937462,6.047886-4.937462
			S31.737047,22.053694,22.479284,27.215586z"/>
		
			<linearGradient id="SVGID_00000047773171185349441770000006553540592304703410_" gradientUnits="userSpaceOnUse" x1="11065.024414" y1="16662.767578" x2="11065.024414" y2="16362.866211" gradientTransform="matrix(0.069699 0 0 0.069699 -722.92926 -1120.492798)">
			<stop  offset="0" style="stop-color:#FFA274"/>
			<stop  offset="1" style="stop-color:#FFC488"/>
		</linearGradient>
		<path style="fill:url(#SVGID_00000047773171185349441770000006553540592304703410_);" d="M72.428162,27.215586
			c-1.898529,5.42713-11.410728,11.996809-11.410728,11.996809c-10.647415-1.754639-34.936817,1.673019-34.936817,1.673019
			c0.097864-0.183624,0.195726-0.38765,0.293589-0.57127c6.36104-12.690502-2.544418-18.076824-2.544418-18.076824
			c0.450165,0,0.900335-0.020405,1.330925-0.040806c19.729021-0.612082,31.492052-3.652086,41.826317-1.448595
			c0.743752,0.163223,1.409218,0.346844,1.996391,0.550873c0.391441,0.142818,0.763321,0.285635,1.096054,0.469265h0.019569
			C72.741318,23.114634,73.171913,25.073299,72.428162,27.215586z"/>
		
			<linearGradient id="SVGID_00000082329326195081106890000015424377808499460019_" gradientUnits="userSpaceOnUse" x1="10613.310547" y1="17148.097656" x2="10576.81543" y2="16343.443359" gradientTransform="matrix(0.069699 0 0 0.069699 -722.92926 -1120.492798)">
			<stop  offset="0" style="stop-color:#EB7463"/>
			<stop  offset="1" style="stop-color:#E45445"/>
		</linearGradient>
		<path style="fill:url(#SVGID_00000082329326195081106890000015424377808499460019_);" d="M15.726791,54.167603
			c0.548027,1.815838,1.252634,3.529667,2.035534,5.121082c0,0-0.371876,0.163216-0.900335,0.285633
			c-0.274012,0.081615-0.587172,0.142826-0.900332,0.163223c-0.645887-1.407784-1.213493-2.85638-1.68323-4.325382
			c0,0,0.352302-0.265232,0.782896-0.652889C15.276629,54.596058,15.511495,54.371628,15.726791,54.167603z"/>
		
			<linearGradient id="SVGID_00000029004321696639763730000014621253424992866950_" gradientUnits="userSpaceOnUse" x1="10692.373047" y1="17144.876953" x2="10655.84668" y2="16339.53125" gradientTransform="matrix(0.069699 0 0 0.069699 -722.92926 -1120.492798)">
			<stop  offset="0" style="stop-color:#EB7463"/>
			<stop  offset="1" style="stop-color:#D13145"/>
		</linearGradient>
		<path style="fill:url(#SVGID_00000029004321696639763730000014621253424992866950_);" d="M26.628647,40.293736
			L26.628647,40.293736c-0.332735,0.408054-0.548029,0.612083-0.548029,0.612083l-0.685034-0.632484l-1.213495-1.101746
			c4.22765,0.204025,5.558575-14.11869-0.528458-12.772114c-5.597719,1.244568-11.332443,10.568615-8.866314,23.871201
			c-0.137011-0.040806-0.391448,0-0.685035,0.061203c-0.450163,0.102016-0.919907,0.285641-0.998196,0.306046
			c-0.704609-3.978535-0.665462-8.01828,0.313159-11.792782c2.877153-11.078686,8.181278-17.750381,11.723892-16.60783
			c0.430597,0.14282,0.822046,0.387651,1.193922,0.7549c0.841612,0.836515,1.507078,2.264706,1.918097,4.386591
			C29.779804,35.070641,27.685556,38.926754,26.628647,40.293736z"/>
		
			<linearGradient id="SVGID_00000100379883645487423260000008072188119823932843_" gradientUnits="userSpaceOnUse" x1="10721.024414" y1="17142.880859" x2="10684.577148" y2="16339.290039" gradientTransform="matrix(0.069699 0 0 0.069699 -722.92926 -1120.492798)">
			<stop  offset="0" style="stop-color:#EB7463"/>
			<stop  offset="1" style="stop-color:#E45445"/>
		</linearGradient>
		<path style="fill:url(#SVGID_00000100379883645487423260000008072188119823932843_);" d="M30.719288,74.305092l-0.939476,1.346581
			c-4.89311-2.795181-9.296911-7.569412-12.40893-13.180168l0.724184-0.530468l0.802471-0.571274
			C23.634056,69.46965,30.425699,74.121468,30.719288,74.305092C30.699713,74.305092,30.719288,74.305092,30.719288,74.305092z"/>
		<path class="st18" d="M29.760239,75.651672c0,0,23.976242-2.121887,36.75705-1.407791l0.704597-1.346573L30.71928,74.305092
			L29.760239,75.651672z"/>
		<path class="st18" d="M15.981233,59.737541c0,0,5.636861,1.856651,6.65463,1.693428
			c1.017769-0.183624,1.44836-0.326447,1.44836-0.326447s-5.441137-1.77504-6.321898-1.83625
			C16.881565,59.22747,15.981233,59.737541,15.981233,59.737541z"/>
		<path class="st18" d="M52.855721,45.088379c0,0-0.84161,1.203766-0.978622,1.509804
			c-0.137012,0.326443-1.644089,0.958931-1.644089,0.958931S49.430542,47.33268,52.855721,45.088379z"/>
		<path class="st12" d="M26.080614,40.885414c0,0,16.55829-6.794109,29.808836-9.466864s11.332451,1.040541,10.803993,2.366716
			c-0.528465,1.32618-4.560379,4.162159-7.085232,4.590614C57.083363,38.80434,48.510635,37.314938,26.080614,40.885414z"/>
		<path class="st19" d="M23.653631,67.306953c0,0-3.483892-4.284573-2.50527-4.835449
			c0.978622-0.550873,20.061752-1.346581,29.554394,0.326447s14.796757,8.793579,14.424892,9.487274
			c-0.391449,0.693687-29.671825,1.040535-33.899475,0.612083C27.000523,72.448441,23.653631,67.306953,23.653631,67.306953z"/>
		<path class="st18" d="M13.104086,50.617527c0,0,1.996391,1.5098,2.50527,2.3055
			c0.508883,0.795708,0.117435,1.244576,0.117435,1.244576s1.076483-1.060951,1.096058-1.366993
			c0.019573-0.306038-1.781094-2.652355-2.113822-2.85638C14.395868,49.740204,13.104086,50.617527,13.104086,50.617527z"/>
		<path class="st19" d="M28.390167,22.094498c-2.055107,0.877317,15.383942,5.38632,23.115051,5.488335
			c7.731113,0.08161,18.789551-3.611284,19.33757-4.264172c0.548027-0.67329-9.414341-3.06041-13.504982-3.305241
			C53.227592,19.748184,28.390167,22.094498,28.390167,22.094498z"/>
		<path class="st20" d="M72.428162,27.215586c-1.898529,5.42713-11.410728,11.996809-11.410728,11.996809
			c-10.647415-1.754639-34.936817,1.673019-34.936817,1.673019l-0.685034-0.632481
			c0.274014,0.081608,0.587173,0.122414,0.978622,0.061211c0.078289,0,0.156578-0.020412,0.25444-0.04081l0,0
			c1.957243-0.38765,17.947931-2.958397,24.876574-3.162422c6.928646-0.183624,8.06385,1.203758,10.353825,0.469261
			C64.129448,36.845673,71.136383,29.745523,72.428162,27.215586z"/>
		<path class="st12" d="M27.920422,40.640583c0,0,15.305653-1.611813,18.652534-2.264706
			c3.366463-0.652885,9.766655-5.69236,9.864521-6.651287c0.117428-0.958927-16.029831,3.590881-20.922939,5.875992
			C30.621424,39.885685,27.920422,40.640583,27.920422,40.640583z"/>
		<path class="st19" d="M18.506081,59.145863c-1.037336-0.489666-1.93767-2.774773-1.663656-3.79491
			s4.54081-0.387646,7.907265,1.979069c3.346891,2.366718,0.626322,3.835712-0.685034,3.448063
			C22.733725,60.370026,18.506081,59.145863,18.506081,59.145863z"/>
		<path class="st20" d="M37.589214,29.480288c0.078289-1.754633,2.211681-1.611814,2.563992-0.816107
			c0.352306,0.795704-0.371876,2.489134-1.44836,2.75437C37.628357,31.704185,37.550068,30.337202,37.589214,29.480288z"/>
		<path class="st21" d="M37.706646,28.949818c0.254436,2.30551,0.156574-0.040806,1.213493-0.530474
			c1.056908-0.489662,1.311352,0.897718,1.311352,0.958927c-0.019569,0.061213,0.313164-1.366982-1.174343-1.264967
			C37.550068,28.194918,37.706646,28.949818,37.706646,28.949818z"/>
		<path class="st20" d="M60.234531,69.836891c-1.370068-1.020134-0.606739-1.917854,0.117432-1.632217
			c0.724186,0.285637,1.859386,1.571014,1.741955,2.2239C61.996052,71.061066,60.89999,70.326561,60.234531,69.836891z"/>
		<path class="st21" d="M59.843086,69.490051c1.898525,1.183357,0.019566-0.081612-0.058716-0.856918
			c-0.078297-0.754898,1.096054-0.102013,1.154781-0.061203c0.058716,0.040802-0.978626-0.918129-1.370071-0.183624
			C59.197186,69.122795,59.843086,69.490051,59.843086,69.490051z"/>
		<path class="st20" d="M35.964699,34.989029c1.056911-1.326176-0.274014-5.794376-3.249027-5.549543
			c-2.975012,0.244831-1.507084,4.71303,0,5.773973C34.222752,36.274399,35.397099,35.723522,35.964699,34.989029z"/>
		<path class="st21" d="M31.071587,32.071438c0.137009,0.734497,0.117435-1.754639,1.50708-2.366718
			c1.409222-0.612083,1.996391,1.326176,3.053303,2.366718c1.056911,1.06094-0.234871-3.060413-2.935863-2.631952
			C30.366978,29.806732,31.071587,32.071438,31.071587,32.071438z"/>
		<path class="st22" d="M70.079475,21.788458c-0.234871-0.081612-4.247231-1.224165-9.707932-1.530207
			c-5.813019-0.326445-9.414341,1.428192-16.910591,1.489399c-7.49625,0.061209-18.319807,0.44886-18.319807,0.44886
			c19.729021-0.612083,31.492056-3.652088,41.826317-1.448595c0.743752,0.163223,1.409218,0.346846,1.996391,0.550873
			L70.079475,21.788458z"/>
		<path class="st13" d="M26.080614,40.885414l-1.898529-1.73423c0,0,1.878954-0.163223,2.544416-2.060677
			c0.665464-1.897453,1.096058-6.426861,1.19392-8.589552c0.097864-2.162691,1.663658,3.019606,0.606747,7.181761
			C27.470259,39.844875,26.080614,40.885414,26.080614,40.885414z"/>
		<path class="st13" d="M23.810209,22.257721c-1.507082,0.30604-4.756102,4.509007-4.462515,5.141487
			c0.31316,0.632486,2.661854-1.999468,5.304134-1.081345c2.642281,0.918121,2.975012-0.122419,2.798857-1.081347
			C27.274536,24.297993,26.178476,21.768057,23.810209,22.257721z"/>
	</g>
	<g>
		
			<linearGradient id="SVGID_00000181072915145895583580000001490967279751422359_" gradientUnits="userSpaceOnUse" x1="11316.12207" y1="16653.986328" x2="11316.12207" y2="16281.344727" gradientTransform="matrix(0.069699 0 0 0.069699 -722.92926 -1120.492798)">
			<stop  offset="0" style="stop-color:#66319A"/>
			<stop  offset="1" style="stop-color:#C51DF1"/>
		</linearGradient>
		<path style="fill:url(#SVGID_00000181072915145895583580000001490967279751422359_);" d="M77.732292,26.746321
			c0,2.795176-0.880753,5.569948-2.38784,7.855055c-2.172539,3.325642-5.656433,5.671959-9.551353,5.671959
			c-4.73653,0-8.827164-3.427662-10.764839-7.91626c0-0.020405-0.019573-0.040806-0.019573-0.040806
			c0-0.020405,0-0.020405,0-0.020405c-0.743744-1.734232-1.15477-3.631689-1.15477-5.549543
			c0-1.28537,0.176151-2.509535,0.528458-3.672491l0,0c1.507076-5.080278,6.047886-8.773174,11.410725-8.773174
			c5.773872,0,10.608269,4.284576,11.704323,9.976936C77.63443,25.073299,77.732292,25.909813,77.732292,26.746321z"/>
		<path class="st2" d="M77.732292,26.746321c0,6.875719-5.343277,13.527014-11.939194,13.527014
			S53.853916,33.62204,53.853916,26.746321c0-1.28537,0.176151-2.509535,0.528458-3.672491l0,0
			c1.21349-2.815578,7.574532,12.42527,14.013859,13.282177c6.458908,0.856915,9.21862-5.467934,9.062042-11.364321
			c0-0.265236,0-0.510071,0.019569-0.714098C77.63443,25.073299,77.732292,25.909813,77.732292,26.746321z"/>
		<path class="st3" d="M62.622364,18.544422c-3.503471,0.08161-2.603134,12.649694,3.992786,15.975342
			c6.595917,3.325653,11.567307-4.447796,10.84314-9.528076c-0.724182-5.080278-4.79525-7.406193-6.14576-7.528608
			C69.981613,17.320259,67.437195,18.44241,62.622364,18.544422z"/>
		<path class="st3" d="M55.008686,32.295864c0,0.020405,0.019573,0.020405,0.019573,0.040806
			C55.028259,32.336674,55.008686,32.316269,55.008686,32.295864z"/>
		<path class="st4" d="M75.344452,34.601376c-2.172539,3.325642-5.656433,5.671959-9.551353,5.671959
			c-4.73653,0-8.827164-3.427662-10.764839-7.91626c0.254436,0.530468,2.289974,4.63142,6.772057,6.590084
			c4.795258,2.081078,9.159904-1.632221,11.82177-3.794914C74.18969,34.662582,74.776863,34.519764,75.344452,34.601376z"/>
		<path class="st2" d="M57.474812,35.295071c-1.800663-2.407528-0.430595-4.998671,2.779289-3.774508
			c3.190308,1.24457,6.047894,4.26417,8.298725,4.876253C70.784073,37.029301,63.600986,43.496964,57.474812,35.295071z"/>
		<path class="st5" d="M69.511864,20.890736c-1.076485,0.36725-0.391449,3.509272,0.90033,3.244036
			C71.703979,23.889938,70.979805,20.401073,69.511864,20.890736z"/>
		<path class="st4" d="M54.206211,29.806732c0.822048,1.713829,0.03915-3.060411,1.78109-8.018274
			c1.135201-3.264441,3.249023-5.447531,3.249023-5.447531S52.072823,21.11517,54.206211,29.806732z"/>
		<g>
			<path class="st6" d="M76.460083,28.766193c-0.019569,0.122417-0.058716,0.244831-0.117432,0.36725
				c-0.469742,1.081345-2.1334,2.264704-3.033722,1.77504c-0.313164-0.163225-0.489319-0.428461-0.548035-0.734501l0,0
				c-0.234871-1.101749,0.802475-2.897188,1.428795-3.937729C75.011726,24.848867,76.655815,27.623642,76.460083,28.766193z"/>
			<path class="st6" d="M72.193291,32.071438c-0.039146,0.326443-0.137009,0.734497-0.274017,1.183357
				c-0.313148,1.040543-1.291771,0.285633-1.565788-0.530472c-0.058716-0.142818-0.0783-0.285637-0.0783-0.408054
				c0-0.918123,0.88076-1.713829,1.624512-1.305773C72.193291,31.153315,72.252007,31.520563,72.193291,32.071438z"/>
			<path class="st2" d="M76.460083,28.766193c-0.019569,0.122417-0.058716,0.244831-0.117432,0.36725l-0.058716,0.020403
				c0,0,0.058716-0.326445-0.234871-1.244568s-1.056915-1.999466-1.898529-1.20376
				c-0.841606,0.775305-1.370071,3.386854-1.389641,3.468466c-0.234871-1.101748,0.802475-2.897188,1.428795-3.937729
				C75.011726,24.848867,76.655815,27.623642,76.460083,28.766193z"/>
			<path class="st2" d="M72.193291,32.071438c0,0-0.62632-1.162954-1.213486-0.897722
				c-0.606743,0.265236-0.606743,1.550608-0.606743,1.550608c-0.058716-0.142818-0.078293-0.285637-0.078293-0.408051
				c0-0.918125,0.880753-1.713827,1.624504-1.305775C72.193291,31.153315,72.252007,31.520563,72.193291,32.071438z"/>
		</g>
	</g>
	<g>
		<g>
			<g class="st24">
				<path d="M70.510071,32.907948c-0.489311,0.265236-0.880768,0.18362-0.880768-0.204029
					c-0.078293-3.080812-0.176155-6.182028-0.25444-9.26284c-0.959045-0.061207-1.42878-0.061207-2.407402,0.020405
					c-0.567612,0.040806-1.056923-0.244833-1.115639-0.693693c-0.058708-0.550871-0.078285-0.816107-0.137001-1.366982
					c-0.039146-0.44886,0.430595-0.836512,1.037338-0.795704c2.329124,0.265234,4.031914,0.693691,6.22403,1.530205
					c0.548027,0.244831,0.978622,0.714094,0.959061,0.999731c-0.019569,2.672762-0.039154,5.325115-0.058716,7.997871
					c0,0.265236-0.450165,0.612083-0.998192,0.775303C71.919273,32.234657,71.429962,32.438686,70.510071,32.907948z"/>
			</g>
			<g>
				<g>
					
						<linearGradient id="SVGID_00000130631623794560311550000007636519589296598148_" gradientUnits="userSpaceOnUse" x1="11363.69043" y1="16542.091797" x2="11363.69043" y2="16355.97168" gradientTransform="matrix(0.069699 0 0 0.069699 -722.92926 -1120.492798)">
						<stop  offset="0.011236" style="stop-color:#34C4F9"/>
						<stop  offset="1" style="stop-color:#F7F7F7"/>
					</linearGradient>
					<path style="fill:url(#SVGID_00000130631623794560311550000007636519589296598148_);" d="M69.922897,32.336674
						c-0.489319,0.244831-0.861198,0.163219-0.88076-0.244835c-0.117432-3.203228-0.25444-6.426859-0.37188-9.630089
						c-0.97863-0.061211-1.467934-0.061211-2.466125,0c-0.587173,0.040804-1.096054-0.265236-1.154778-0.734499
						c-0.058716-0.57128-0.09787-0.856915-0.156578-1.407789c-0.058716-0.469263,0.430588-0.856913,1.056908-0.836514
						c2.387848,0.285637,4.149368,0.714096,6.4002,1.571011c0.548019,0.265238,0.998192,0.734501,0.978622,1.040541
						c-0.019569,2.815578-0.039146,5.631157-0.078293,8.446733c0,0.285639-0.450172,0.632488-0.97863,0.795706
						C71.292969,31.683783,70.823227,31.867411,69.922897,32.336674z"/>
				</g>
				<g class="st26">
					<path class="st27" d="M69.922897,32.336674c-0.489319,0.244831-0.861198,0.163219-0.88076-0.244835
						c-0.117432-3.203228-0.25444-6.426859-0.37188-9.630089c-0.97863-0.061211-1.467934-0.061211-2.466125,0
						c-0.587173,0.040804-1.096054-0.265236-1.154778-0.734499c-0.058716-0.57128-0.09787-0.856915-0.156578-1.407789
						c-0.058716-0.469263,0.430588-0.856913,1.056908-0.836514c2.387848,0.285637,4.149368,0.714096,6.4002,1.571011
						c0.548019,0.265238,0.998192,0.734501,0.978622,1.040541c-0.019569,2.815578-0.039146,5.631157-0.078293,8.446733
						c0,0.285639-0.450172,0.632488-0.97863,0.795706C71.292969,31.683783,70.823227,31.867411,69.922897,32.336674z"/>
				</g>
			</g>
		</g>
	</g>
	<g>
		<g>
			<g class="st24">
				<path d="M5.783993,30.112772c-0.234872,0.040804-0.469738-0.040804-0.626321-0.224432
					c-0.156577-0.163221-0.215299-0.408054-0.156577-0.632484c0.352302-1.20376,0.587173-1.795441,1.154773-2.958399
					c-0.058715,0.020407-0.117437,0.020407-0.195724,0.040808c-0.645889,0.061207-0.978623,0.102013-1.62451,0.244831
					c-0.489311,0.102013-0.939474-0.081612-1.037338-0.448858c-0.176151-0.754902-0.254439-1.12215-0.430596-1.87705
					c-0.078288-0.36725,0.31316-0.816111,0.900334-0.938528c2.250832-0.489662,4.57995-0.489662,6.830782,0
					c0.587173,0.122417,0.978621,0.571278,0.900334,0.938528c-0.097863,0.387651-0.137011,0.571276-0.2153,0.958927
					c-0.019573,0.102013-0.078288,0.183624-0.137009,0.244831c-1.565796,1.509802-2.192117,2.36672-3.17074,4.182562
					c-0.13701,0.244831-0.39145,0.38765-0.665462,0.38765C6.68432,30.010759,6.390734,30.031162,5.783993,30.112772z"/>
			</g>
			<g>
				<g>
					
						<linearGradient id="SVGID_00000034804164941161989520000001764880982340550068_" gradientUnits="userSpaceOnUse" x1="10465.113281" y1="16489.291016" x2="10465.113281" y2="16399.230469" gradientTransform="matrix(0.069699 0 0 0.069699 -722.92926 -1120.492798)">
						<stop  offset="0.011236" style="stop-color:#34C4F9"/>
						<stop  offset="1" style="stop-color:#F7F7F7"/>
					</linearGradient>
					<path style="fill:url(#SVGID_00000034804164941161989520000001764880982340550068_);" d="M5.118524,28.786596
						c-0.078289,0.020401-0.156577,0-0.195725-0.061211c-0.058714-0.040804-0.078289-0.122417-0.039145-0.183624
						c0.587173-1.836245,0.998194-2.75437,2.094255-4.4886c-0.606748,0-0.919907,0.020403-1.546221,0.102015
						c0.019572,0.244831,0.039146,0.346844,0.058715,0.591677c0.019573,0.102015-0.117436,0.224432-0.274014,0.244833
						c-0.704609,0.102015-1.05691,0.163221-1.761519,0.346844c-0.156579,0.040806-0.293588-0.020403-0.313161-0.122416
						c-0.176151-0.754902-0.254439-1.12215-0.430596-1.87705c-0.019573-0.102015,0.097862-0.244835,0.274013-0.285639
						c2.270406-0.591679,4.658239-0.693691,6.967792-0.30604c0.176151,0.020403,0.31316,0.142817,0.293588,0.265236
						c-0.058715,0.387651-0.097862,0.571278-0.156577,0.958927c0,0.020405-0.019574,0.061209-0.039147,0.081612
						c-1.507081,1.632217-2.133397,2.550341-3.053302,4.447796c-0.039147,0.081608-0.117436,0.122416-0.195723,0.122416
						C6.136295,28.623371,5.783993,28.664181,5.118524,28.786596z"/>
				</g>
				<g class="st26">
					<path class="st27" d="M5.118524,28.786596c-0.078289,0.020401-0.156577,0-0.195725-0.061211
						c-0.058714-0.040804-0.078289-0.122417-0.039145-0.183624c0.587173-1.836245,0.998194-2.75437,2.094255-4.4886
						c-0.606748,0-0.919907,0.020403-1.546221,0.102015c0.019572,0.244831,0.039146,0.346844,0.058715,0.591677
						c0.019573,0.102015-0.117436,0.224432-0.274014,0.244833c-0.704609,0.102015-1.05691,0.163221-1.761519,0.346844
						c-0.156579,0.040806-0.293588-0.020403-0.313161-0.122416c-0.176151-0.754902-0.254439-1.12215-0.430596-1.87705
						c-0.019573-0.102015,0.097862-0.244835,0.274013-0.285639c2.270406-0.591679,4.658239-0.693691,6.967792-0.30604
						c0.176151,0.020403,0.31316,0.142817,0.293588,0.265236c-0.058715,0.387651-0.097862,0.571278-0.156577,0.958927
						c0,0.020405-0.019574,0.061209-0.039147,0.081612c-1.507081,1.632217-2.133397,2.550341-3.053302,4.447796
						c-0.039147,0.081608-0.117436,0.122416-0.195723,0.122416C6.136295,28.623371,5.783993,28.664181,5.118524,28.786596z"/>
				</g>
			</g>
		</g>
	</g>
	<g>
		<g>
			<g class="st24">
				<path d="M73.56337,66.898903c-0.90033-0.714096-2.035545-1.611824-2.838005-2.121887
					c-0.37188-0.244835-0.430595-0.38765-0.156578-0.44886c0.274017-0.081604,0.411018-0.122414,0.645882-0.244835
					c-0.078285-0.061203-0.097862-0.122417-0.078285-0.18362c0.137001-0.469261,0.215286-0.7141,0.352295-1.183361
					c0.058716-0.18362,0.411018-0.550873,0.822044-0.7957c1.291779-0.775303,2.015961-1.060947,3.54261-1.387386
					c0.489311-0.102013,0.861198,0.306042,0.802467,0.89772c-0.039146,0.550873-0.058716,0.836514-0.117432,1.407784
					c-0.039146,0.448864-0.274025,0.775303-0.587181,0.836514c0.430603,0.632492,0.626328,1.591415,0.548035,2.529938
					C76.342651,68.286285,75.383598,68.347504,73.56337,66.898903z M73.641663,64.899437L73.641663,64.899437z"/>
			</g>
			<g>
				<g>
					
						<linearGradient id="SVGID_00000044175402636857606020000013744415001541869187_" gradientUnits="userSpaceOnUse" x1="11420.693359" y1="17017.921875" x2="11420.693359" y2="16938.576172" gradientTransform="matrix(0.069699 0 0 0.069699 -722.92926 -1120.492798)">
						<stop  offset="0.011236" style="stop-color:#34C4F9"/>
						<stop  offset="1" style="stop-color:#F7F7F7"/>
					</linearGradient>
					<path style="fill:url(#SVGID_00000044175402636857606020000013744415001541869187_);" d="M73.074051,65.246277
						c-0.802467-0.367249-1.741951-0.856911-2.38784-1.101746c-0.097862-0.040802-0.117424-0.081612-0.039146-0.102013
						c0.293587-0.122421,0.450165-0.18362,0.704605-0.367249c0.039146-0.020397,0.117424-0.061203,0.195724-0.061203
						c0.019569,0,0.019569,0,0.039146,0c0.0783,0,0.137009,0,0.176155,0.040806
						c0.332733,0.183624,0.763329,0.387653,1.213493,0.469257c0.626328,0.122421,0.626328-0.142815,0.645897-0.244827
						c0.019562-0.22443-0.176155-0.367249-0.587181-0.387653c-0.274017-0.020405-1.154778,0-1.487495,0.040802H71.52784
						c-0.058716,0-0.117432,0-0.156578-0.020397c-0.039146-0.020405-0.058716-0.04081-0.058716-0.061207
						c0.137009-0.489666,0.195724-0.714096,0.332733-1.203758c0.019569-0.061211,0.117432-0.163219,0.234871-0.265236
						c1.213493-0.958931,1.918098-1.346581,3.425179-1.877056c0.137009-0.040806,0.25444,0.040813,0.234871,0.183624
						c-0.019569,0.469265-0.039146,0.714096-0.058716,1.183357c0,0.142818-0.117424,0.265236-0.25444,0.285641
						c-0.841606,0.081608-1.252632,0.163219-2.074669,0.38765c0,0.102013-0.019569,0.163219-0.019569,0.265228
						c0.097855-0.020401,0.137009-0.040806,0.234871-0.040806c1.370071-0.265232,2.270393,0.652889,2.192116,1.917854
						C75.481461,65.735947,74.581131,65.960373,73.074051,65.246277z"/>
				</g>
				<g class="st26">
					<path class="st27" d="M73.074051,65.246277c-0.802467-0.367249-1.741951-0.856911-2.38784-1.101746
						c-0.097862-0.040802-0.117424-0.081612-0.039146-0.102013c0.293587-0.122421,0.450165-0.18362,0.704605-0.367249
						c0.039146-0.020397,0.117424-0.061203,0.195724-0.061203c0.019569,0,0.019569,0,0.039146,0
						c0.0783,0,0.137009,0,0.176155,0.040806c0.332733,0.183624,0.763329,0.387653,1.213493,0.469257
						c0.626328,0.122421,0.626328-0.142815,0.645897-0.244827c0.019562-0.22443-0.176155-0.367249-0.587181-0.387653
						c-0.274017-0.020405-1.154778,0-1.487495,0.040802H71.52784c-0.058716,0-0.117432,0-0.156578-0.020397
						c-0.039146-0.020405-0.058716-0.04081-0.058716-0.061207c0.137009-0.489666,0.195724-0.714096,0.332733-1.203758
						c0.019569-0.061211,0.117432-0.163219,0.234871-0.265236c1.213493-0.958931,1.918098-1.346581,3.425179-1.877056
						c0.137009-0.040806,0.25444,0.040813,0.234871,0.183624c-0.019569,0.469265-0.039146,0.714096-0.058716,1.183357
						c0,0.142818-0.117424,0.265236-0.25444,0.285641c-0.841606,0.081608-1.252632,0.163219-2.074669,0.38765
						c0,0.102013-0.019569,0.163219-0.019569,0.265228c0.097855-0.020401,0.137009-0.040806,0.234871-0.040806
						c1.370071-0.265232,2.270393,0.652889,2.192116,1.917854C75.481461,65.735947,74.581131,65.960373,73.074051,65.246277z"/>
				</g>
			</g>
		</g>
	</g>
</g>
</svg>
