<?xml version="1.0" encoding="utf-8"?>
<!-- Generator: Adobe Illustrator 26.5.0, SVG Export Plug-In . SVG Version: 6.00 Build 0)  -->
<svg width="50" height="65" version="1.1" id="Layer_1" xmlns="http://www.w3.org/2000/svg" xmlns:xlink="http://www.w3.org/1999/xlink" x="0px" y="0px"
	 viewBox="0 0 45 60.831558" style="enable-background:new 0 0 45 60.831558;" xml:space="preserve">
<style type="text/css">
	.st0{fill:url(#SVGID_1_);}
	.st1{fill:#E53625;}
	.st2{fill:#FF9304;}
	.st3{fill:#EEF5DE;}
	.st4{display:none;fill:#B1B3B6;}
	.st5{fill:#302F8F;}
</style>
<g>
	<g id="Layer_1_00000053533729058358473840000002243271252595237263_">
		
			<linearGradient id="SVGID_1_" gradientUnits="userSpaceOnUse" x1="1292.590576" y1="1757.928345" x2="1474.445923" y2="1757.928345" gradientTransform="matrix(0.247239 0 0 0.247239 -319.577209 -404.127411)">
			<stop  offset="0" style="stop-color:#D40D89"/>
			<stop  offset="1" style="stop-color:#DF1693"/>
		</linearGradient>
		<path class="st0" d="M44.107475,39.27911c0.018394-0.143139,0.051533-0.283993,0.0989-0.420311
			c-1.730675,0.890064-3.139938,2.422943-3.609684,4.326687c-0.015995,0.046486-0.066639,0.071205-0.113117,0.055206
			c-0.034466-0.011852-0.05822-0.043526-0.059956-0.079933v-0.766434c0.053074-0.970013,0.244556-1.927444,0.568649-2.84325
			c0.319866-0.878269,0.691376-1.736862,1.112576-2.571285c0.890057-1.755402,1.804844-3.510799,2.200436-5.463989
			c0.375809-1.797901,0.167923-3.668816-0.59338-5.340366c-0.692268-1.582329-1.804844-2.942144-3.041039-4.128895
			c-0.049454-0.049446-0.098904-0.074171-0.123619-0.123619c-0.927238-0.865362-1.919079-1.658825-2.966873-2.373497
			c0.082817,1.705994-0.357079,3.396622-1.260914,4.84589c-0.031853,0.040962-0.090874,0.048347-0.131844,0.016497
			c-0.006157-0.004791-0.011692-0.010334-0.016491-0.016497l-0.370861-0.741718
			c-0.469761-0.988956-0.890053-2.027361-1.433983-2.966869c-1.532887-2.670185-3.980545-4.252514-6.205698-6.230427
			c-3.115208-2.769078-6.576555-6.329325-6.131529-10.829077V2.959677c0.031675-0.92374,0.189732-1.838789,0.469761-2.719631
			c-1.160353,0.94604-2.205883,2.024761-3.115208,3.214109c-1.188419,1.573826-2.153549,3.304402-2.867968,5.142576
			c-1.310365,3.411901-1.483436,7.466621-0.197788,10.952696c0.024717,0.049446-0.049452,0.123619-0.098902,0.098894
			c-0.134546-0.091515-0.274945-0.174105-0.42031-0.24724c-0.098902-0.049446-0.197788-0.123619-0.29669-0.173065
			c-0.789569-0.322605-1.550474-0.711327-2.274604-1.162024c-0.148345-0.098894-0.29669-0.222515-0.445027-0.321413
			L12.5598,17.596235c-0.890063-0.618097-1.804843-1.557608-2.225153-2.571286
			c-0.372881-0.882215-0.541907-1.837196-0.494478-2.793803c0.034541-0.965846,0.306257-1.908347,0.791168-2.744356
			c0.084566-0.149685,0.183966-0.290496,0.29669-0.420306c-1.656506,0.469753-3.065764,1.780122-4.079446,3.090489
			c-1.33509,1.681228-2.225152,3.758035-2.200427,5.909016c0.024725,2.249878,1.063126,4.326685,2.521842,5.983187
			c1.186745,1.335091,2.867976,2.521839,3.313004,4.326685c0.241935,1.075771,0.027095,2.203711-0.593372,3.115215
			c-0.430194,0.751581-1.053264,1.374651-1.804843,1.804842c0.293355-0.789589,0.419638-1.631477,0.370858-2.472391
			c-0.049451-0.964231-0.29669-2.225151-1.236196-2.769081c-0.342263-0.202662-0.743898-0.28124-1.137301-0.222513
			c0.496395,1.011154,0.669058,2.150742,0.494478,3.263559c-0.17307,1.260923-0.692267,2.422941-1.310365,3.535517
			c-1.285647,2.29932-3.041039,4.30196-4.128897,6.700184c-0.626005,1.346897-1.002945,2.796017-1.112576,4.277233
			c-0.070457,1.078941,0.021217,2.16235,0.271965,3.214111C2.002699,56.313881,12.510364,59.82468,19.06221,60.566395
			c5.078678,0.568203,10.21941-0.101955,14.982689-1.953186c4.450302-1.730675,10.334595-4.84589,10.878521-10.210976
			C45.24477,45.311745,43.514095,42.369598,44.107475,39.27911z"/>
		<path class="st1" d="M22.029018,3.6025V2.934955c0.031675-0.92374,0.189732-1.838788,0.469761-2.719631
			c-0.098902,0.074172-0.197788,0.173067-0.29669,0.247239C21.538435,2.33526,21.211971,4.310766,21.23785,6.29741
			c0.102131,2.34435,0.818302,4.620746,2.076817,6.601285c0.72554,1.112972,1.553257,2.155888,2.472391,3.115215
			c0.914787,0.964231,1.903744,1.854294,2.84325,2.769077c1.755392,1.70595,3.486067,3.486074,4.722261,5.612329
			c0.600006,1.038256,1.057392,2.152613,1.359818,3.313002c0.288616,1.171883,0.405216,2.379519,0.346138,3.584969
			c0.422241-0.617691,0.75518-1.291885,0.988956-2.002638c0.46365-1.562187,0.623123-3.198858,0.469761-4.821165
			c0-0.123619-0.024715-0.247238-0.024715-0.370857c-0.049454,0.098894-0.123619,0.197792-0.173073,0.296686
			c-0.031853,0.040962-0.090874,0.048347-0.131844,0.016497c-0.006157-0.004791-0.011692-0.010334-0.016491-0.016497
			l-0.370861-0.741718c-0.469761-0.988956-0.890053-2.027361-1.433983-2.966869
			c-1.532887-2.670185-3.980545-4.252514-6.205698-6.230427C25.045324,11.662495,21.583977,8.077527,22.029018,3.6025z"/>
		<path class="st1" d="M41.165321,23.183842c0.644447,1.916111,0.8885,3.944166,0.716999,5.958462
			c-0.071888,0.909266-0.220768,1.810797-0.445026,2.694906c-0.271957,0.988955-0.618099,1.953188-0.964237,2.942144
			c-0.791168,2.150982-1.656506,4.326687-1.928463,6.626007c-0.144852,1.073997-0.077656,2.165974,0.197788,3.214108
			c0.315025,1.0299,0.894733,1.959126,1.681221,2.694908c0.148338-0.815887,0.247242-1.631783,0.346142-2.447666
			c0.083057-1.18679,0.28178-2.362633,0.59338-3.510799c-0.373272,0.5564-0.641426,1.176498-0.791168,1.829567
			c-0.015995,0.046486-0.066639,0.071205-0.113117,0.055206c-0.034466-0.011852-0.058216-0.043526-0.059952-0.079933v-0.766426
			c0.05307-0.970013,0.244553-1.927444,0.568645-2.84325c0.31987-0.878269,0.691376-1.736862,1.112576-2.571285
			c0.890057-1.755402,1.804844-3.510799,2.200436-5.463989c0.375809-1.797901,0.167927-3.668816-0.59338-5.340366
			c-0.692265-1.582329-1.804844-2.942144-3.041039-4.128895C40.874081,22.398094,41.049038,22.781309,41.165321,23.183842z"/>
		<path class="st1" d="M9.889566,12.181699c0.034542-0.965846,0.306258-1.908347,0.791169-2.744356
			c0.084565-0.149685,0.183966-0.290496,0.29669-0.420306c-0.244417,0.075655-0.483885,0.166488-0.716992,0.271965
			c-0.516585,0.883842-0.915543,1.83136-1.186745,2.818524c-0.189127,0.683405-0.25609,1.39484-0.197788,2.101534
			c0.070871,0.747738,0.29832,1.472189,0.667548,2.126258c0.444915,0.749828,0.994359,1.432472,1.631781,2.027361
			c0.519203,0.519203,1.063125,1.013681,1.63178,1.483435c1.038407,0.865337,2.126259,1.705948,3.016314,2.694906
			c0.450415,0.501856,0.848074,1.048653,1.186745,1.631779c0.29147,0.524792,0.523647,1.080374,0.692266,1.656502
			c0.049452-0.592342,0.049452-1.187778,0-1.780121c-0.102659-1.294878-0.464176-2.555977-1.063126-3.708588
			c-0.148336-0.271965-0.29669-0.543926-0.445026-0.791164c-0.098902-0.074173-0.197789-0.123619-0.296691-0.197792
			s-0.197788-0.123619-0.29669-0.173067c-0.789569-0.322603-1.550481-0.711325-2.274603-1.162024
			c-0.148345-0.098894-0.29669-0.222513-0.445027-0.321411l-0.222514-0.148346
			c-0.890062-0.618097-1.804843-1.557607-2.225152-2.571285C10.007429,14.109022,9.819692,13.144738,9.889566,12.181699z"/>
		<path class="st1" d="M8.455583,30.774084c-0.049451-0.964231-0.29669-2.225153-1.236196-2.769081
			c-0.229614-0.144461-0.495165-0.22156-0.766443-0.222515c0.255343,0.56818,0.438086,1.166267,0.543929,1.780125
			c0.321408,1.928463-0.17307,3.856932-0.914788,5.637053c-0.692266,1.681221-1.63178,3.238834-2.571286,4.771713
			c0.646158-0.501747,1.2423-1.064774,1.780125-1.681225c1.313133-1.472157,2.343996-3.1735,3.041039-5.018951l0.074168-0.222515
			c-0.103662,0.071415-0.210939,0.137436-0.321407,0.197788C8.401861,32.4632,8.528952,31.61594,8.455583,30.774084z"/>
		<path class="st2" d="M38.569309,36.040276c0.231606-1.168194,0.163567-2.376011-0.197788-3.510799
			c-0.358711,1.001774-0.805489,1.969795-1.335094,2.8927c-0.568649,0.939507-1.310368,1.854294-2.274605,2.422943
			c-0.074169,0.04945-0.148338-0.049454-0.123619-0.123619c0.148338-0.296692,0.271957-0.593376,0.395576-0.890064
			c0.854183-2.11937,0.950249-4.4687,0.271957-6.650732c-0.667549-2.175701-2.027367-4.079447-3.659138-5.637054
			c-1.483435-1.384541-3.214109-2.348772-4.895332-3.436623c-1.409266-0.914783-2.84325-1.953188-3.733305-3.411901
			c-0.429697-0.686056-0.684391-1.467115-0.741718-2.2746c-0.039898-0.887259,0.111895-1.772696,0.445028-2.596011
			c-1.01194,0.570439-1.738356,1.539005-2.002632,2.670184c-0.494478,2.126258,0.29669,4.450305,1.285646,6.329324
			c0.59338,1.112577,1.260914,2.249878,1.433985,3.535521c0.173071,1.359816-0.420309,2.546564-1.310364,3.535522
			c-0.049452,0.04945-0.123621,0.024725-0.148338-0.049452c-0.445028-1.879019-1.433985-3.931101-3.510799-4.277239
			c0.57583,0.793373,0.902851,1.74,0.939507,2.719631c-0.008858,0.955294-0.264353,1.892107-0.741718,2.719627
			c-0.890055,1.656506-2.274603,3.016319-3.634418,4.277233c-0.728846,0.654701-1.422109,1.347965-2.076808,2.076809
			c-0.627574,0.724899-1.167022,1.521622-1.607055,2.373497c-0.779541,1.560471-1.201819,3.274948-1.236196,5.018951
			c-0.009492,1.923576,0.256943,3.838577,0.791168,5.686504c0.01878,0.040962,0.000793,0.089386-0.040162,0.108166
			c-0.027397,0.012562-0.059486,0.008995-0.083457-0.009274c-1.7554-1.112576-2.521843-3.238834-3.115215-5.167297
			c-0.046305,1.58012,0.196687,3.155376,0.716992,4.648094c2.150984,6.279873,8.579195,8.851158,14.859076,8.158894
			c5.018951-0.568649,10.927975-3.189384,13.647606-7.614964c1.186745-1.95319,0.939507-4.054722,1.335098-6.230431
			c-1.072662,0.632439-1.992779,1.493477-2.694916,2.521858c-0.761093,1.03616-1.26144,2.240376-1.458717,3.510799
			c-0.011497,0.047791-0.059574,0.077209-0.107365,0.065708c-0.032505-0.007824-0.057888-0.033207-0.065704-0.065708
			c-0.370857-1.275719-0.370857-2.630661,0-3.906376c0.642815-2.274605,2.175701-4.153618,3.33773-6.180981
			C37.870827,38.288803,38.323143,37.191536,38.569309,36.040276z"/>
		<path class="st3" d="M16.144714,52.358059c1.075304,1.201981,2.570948,1.945374,4.178349,2.076809
			c2.119129,0.131958,4.217825-0.480164,5.933741-1.730675c3.18939-2.398224,2.54656-6.180977-0.173071-8.579201
			c-1.310364-1.137302-2.620729-2.29932-3.041039-4.079449c-0.445028-1.829567,0.123619-3.634418,0.914787-5.26619
			c0.741718-1.557606,1.631773-3.065765,2.076815-4.746996c0.230942-0.751955,0.290096-1.546173,0.173071-2.324047
			c-0.05031-0.295052-0.150646-0.579346-0.29669-0.840611c-0.044924,0.046768-0.071285,0.108284-0.074169,0.173067
			c0.049452,2.744352-2.101532,4.821159-4.054728,6.452938c-2.126251,1.780125-4.376137,3.436623-6.007909,5.735954
			c-0.833738,1.151363-1.438104,2.452427-1.780126,3.832207c-0.267543,1.200703-0.326093,2.438545-0.17307,3.659138
			C14.067915,48.847267,14.809632,50.899349,16.144714,52.358059z"/>
		<path class="st3" d="M28.185266,38.141808c-0.008694-0.69828,0.134741-1.390087,0.420309-2.027363
			c0.543928-1.335091,1.433985-2.49712,2.274603-3.659138c0.358425-0.450195,0.649878-0.949842,0.865337-1.483435
			c0.19883-0.515499,0.323687-1.056553,0.370859-1.607056c0.088234-1.087519-0.162222-2.175694-0.717001-3.115213
			c-0.462788-0.76899-1.130548-1.393944-1.928461-1.804848c0.154991,0.608845,0.262449,1.228806,0.321407,1.854294
			c0.075497,1.133915-0.050055,2.272245-0.370859,3.36245c-0.362392,1.077047-0.783337,2.133511-1.260914,3.164658
			c-0.073414,0.02742-0.134741,0.079979-0.173069,0.148346c-0.14864,0.268486-0.272758,0.549831-0.370859,0.840614
			c-0.253517,1.051647-0.36167,2.133083-0.321409,3.214108c0.035025,0.672256,0.211973,1.329483,0.519197,1.928463
			c0.254995,0.480747,0.608892,0.90205,1.038406,1.236195c0-0.024723-0.024717-0.024723-0.024717-0.04945
			C28.407047,39.561855,28.181946,38.860596,28.185266,38.141808z"/>
		<path class="st4" d="M44.156925,42.517944c-0.15884,1.250751-0.535389,2.464046-1.112576,3.584969
			c-1.112576,2.126259-2.818535,3.906376-4.672829,5.389809c-3.560249,2.818527-8.307228,4.524475-12.856436,3.980553
			c-2.192497-0.278671-4.277506-1.112675-6.05736-2.422939c-1.755392-1.260921-3.214109-2.867977-4.672826-4.450306
			c-0.717-0.791168-1.45871-1.607056-2.200427-2.373497c-0.686208-0.745121-1.448569-1.416328-2.274604-2.00264
			c-1.390086-0.879745-3.003026-1.34304-4.648093-1.335091H5.216748c-0.510482,0.075809-1.009065,0.217075-1.483435,0.420311
			c-0.876059,0.404942-1.665303,0.97588-2.324047,1.681225c-0.50566,0.50946-0.953412,1.073303-1.33509,1.681221
			c0.028113,0.699036,0.119138,1.394108,0.271965,2.076809c1.705949,7.491344,12.213614,11.002144,18.765459,11.743862
			c5.078678,0.568199,10.21941-0.101959,14.982687-1.95319c4.450306-1.730675,10.334595-4.84589,10.878525-10.210976
			C45.145882,46.399601,44.503052,44.471134,44.156925,42.517944z"/>
		<path class="st1" d="M11.002143,19.376356c-0.17307-1.50816-1.038407-3.758035-2.744356-4.104172
			c-0.398391-0.084641-0.814075-0.013886-1.162027,0.197792c-0.342889,0.262782-0.579829,0.640127-0.667549,1.063129
			c-0.218009,1.017797-0.226422,2.069334-0.024725,3.09049c0.24724,1.21147,1.038408,2.373497,2.274604,2.719631
			c0.776206,0.229881,1.608066-0.109024,2.002639-0.815891C11.030264,20.868053,11.143682,20.10902,11.002143,19.376356z"/>
		<path class="st1" d="M13.301472,24.766171c-0.144059-0.696062-0.518607-1.323221-1.063125-1.780121
			c-0.219918-0.21567-0.508792-0.346975-0.815886-0.370859c-0.468991,0.017879-0.884441,0.30773-1.063126,0.741718
			c-0.466162,1.001501-0.322329,2.180923,0.370859,3.041042c0.766442,0.890062,1.903744,0.815889,2.42294-0.271965
			C13.337131,25.697664,13.388792,25.224089,13.301472,24.766171z"/>
		<path class="st5" d="M11.051594,24.395313"/>
		<path class="st5" d="M11.101045,24.395313"/>
		<path class="st5" d="M11.125763,24.395313"/>
		<path class="st1" d="M20.570303,6.767159c-0.271957-0.642823-0.766436-0.964231-1.508154-0.346133
			c-0.815886,0.667545-1.384533,2.076808-1.607054,3.090489c-0.148338,0.69227-0.123621,1.483436,0.321407,2.052086
			c1.582336,2.052086,2.892702-1.508161,3.065771-2.694905C20.915718,8.156573,20.822611,7.437126,20.570303,6.767159z"/>
	</g>
</g>
</svg>
